#!OML:ASF H:\Terrain\Patient Classification 1\Walking\liu\liu.ASF
:FULLY-SPECIFIED
:DEGREES
49
root 8.594020 15.860900 -29.460501 6.667930 -10.173700 -3.184890
lowerback -7.452786 0.662585 0.122984
upperback -2.470358 0.790523 3.844071
thorax 1.581162 0.399528 3.961562
lowerneck -23.451231 -4.672074 -14.217170
upperneck 18.673712 -5.478341 15.827351
head 10.552861 -1.767843 7.187191
rclavicle 0.000000 0.000000
rhumerus -51.839043 21.756899 -104.173744
rradius 54.170052
rwrist -27.544880
rhand -33.516449 -31.668449
rfingers 7.837522
rthumb -4.147891 -64.609489
lclavicle 0.000000 0.000000
lhumerus -49.653671 -3.480246 99.069077
lradius 23.227051
lwrist -4.493335
lhand 4.450809 -18.055620
lfingers 7.837522
lthumb 32.405781 12.396450
rfemur 18.452829 4.787596 23.338921
rtibia 21.494772
rfoot 3.728021 0.274648
rtoes -16.673580
lfemur -43.579250 9.251672 -19.563940
ltibia 42.380360
lfoot -4.529360 7.397808
ltoes -2.246563
50
root 8.632260 15.880500 -29.307301 6.372820 -10.266500 -2.809990
lowerback -7.072307 0.664686 -0.086872
upperback -2.500058 0.819803 3.627305
thorax 1.337600 0.416627 3.850253
lowerneck -23.447821 -4.685164 -14.159860
upperneck 18.683500 -5.543714 15.942631
head 10.568667 -1.782330 7.211171
rclavicle 0.000000 0.000000
rhumerus -51.459213 21.056530 -104.093773
rradius 52.598263
rwrist -26.845390
rhand -33.122650 -30.553490
rfingers 7.837522
rthumb -3.767621 -63.501019
lclavicle 0.000000 0.000000
lhumerus -49.380432 -3.406601 98.653831
lradius 22.846781
lwrist -4.757115
lhand 4.804481 -17.612982
lfingers 7.837522
lthumb 32.743370 12.779250
rfemur 17.378130 4.021446 22.450121
rtibia 24.636810
rfoot 4.541603 0.384089
rtoes -17.158791
lfemur -42.580341 9.294527 -20.190500
ltibia 42.309303
lfoot -4.918749 7.303109
ltoes -2.376825
51
root 8.665140 15.898900 -29.165001 6.269750 -10.449700 -2.525180
lowerback -6.659752 0.762359 -0.318918
upperback -2.707749 0.978591 3.474603
thorax 0.883421 0.502459 3.824601
lowerneck -23.556610 -4.767378 -14.347740
upperneck 19.079941 -5.677760 16.161091
head 10.760552 -1.829839 7.323877
rclavicle 0.000000 0.000000
rhumerus -51.201153 20.142981 -103.873436
rradius 51.012062
rwrist -25.952080
rhand -32.115490 -29.113150
rfingers 7.837522
rthumb -2.794957 -62.074211
lclavicle 0.000000 0.000000
lhumerus -49.164391 -3.020732 98.107681
lradius 22.341770
lwrist -5.420877
lhand 5.104396 -17.762911
lfingers 7.837522
lthumb 33.029591 12.577731
rfemur 16.018970 3.359400 21.693211
rtibia 27.758610
rfoot 5.786231 0.066879
rtoes -16.409361
lfemur -41.811771 9.428265 -20.686600
ltibia 42.204693
lfoot -5.746521 7.226659
ltoes -2.152590
52
root 8.701530 15.927600 -29.015301 6.352920 -10.690500 -2.172150
lowerback -6.816645 0.928084 -0.510776
upperback -2.730739 1.211276 3.302288
thorax 0.932198 0.619030 3.772274
lowerneck -23.588621 -4.911027 -14.257871
upperneck 19.089510 -5.840131 15.879710
head 10.783179 -1.927750 7.177126
rclavicle 0.000000 -0.000000
rhumerus -50.928570 19.371660 -103.571487
rradius 49.997311
rwrist -25.547060
rhand -32.075890 -29.313131
rfingers 7.837522
rthumb -2.756743 -62.274632
lclavicle 0.000000 -0.000000
lhumerus -48.641338 -2.822754 97.729286
lradius 21.956770
lwrist -6.348947
lhand 4.671513 -18.295309
lfingers 7.837522
lthumb 32.616432 12.119471
rfemur 14.377220 2.758019 20.804741
rtibia 30.923201
rfoot 7.075321 -0.417310
rtoes -13.862861
lfemur -41.199074 9.438198 -21.257719
ltibia 42.064220
lfoot -6.597987 7.240607
ltoes -0.788291
53
root 8.735990 15.963800 -28.870600 6.491090 -10.938800 -1.909460
lowerback -7.054234 0.951532 -0.716625
upperback -2.671185 1.251283 3.263568
thorax 1.119624 0.637338 3.856974
lowerneck -23.883310 -4.943995 -14.158211
upperneck 19.061680 -5.814182 15.598660
head 10.810008 -1.928542 7.058239
rclavicle 0.000000 0.000000
rhumerus -50.167698 19.052662 -103.351929
rradius 48.757610
rwrist -25.300991
rhand -32.785500 -30.934530
rfingers 7.837522
rthumb -3.442010 -63.887012
lclavicle 0.000000 0.000000
lhumerus -48.166363 -2.680733 97.503784
lradius 21.880760
lwrist -6.883734
lhand 4.023470 -18.366701
lfingers 7.837522
lthumb 31.997789 12.156541
rfemur 12.579380 2.246706 20.105909
rtibia 34.105942
rfoot 8.080391 -0.886375
rtoes -12.906740
lfemur -40.661720 9.564566 -21.790121
ltibia 41.864132
lfoot -7.058228 7.240156
ltoes -0.794056
54
root 8.768380 15.997100 -28.733999 6.607820 -11.139800 -1.903280
lowerback -7.036932 0.849485 -0.695673
upperback -2.740617 1.115191 3.269332
thorax 1.047677 0.570394 3.840441
lowerneck -24.189220 -4.764529 -14.016090
upperneck 19.308191 -5.622694 15.704260
head 10.922120 -1.807619 7.115812
rclavicle -0.000000 -0.000000
rhumerus -49.151848 18.786901 -103.364029
rradius 46.855053
rwrist -24.660681
rhand -32.699593 -30.816721
rfingers 7.837522
rthumb -3.359048 -63.770409
lclavicle -0.000000 -0.000000
lhumerus -48.003342 -2.505085 97.132751
lradius 21.885601
lwrist -7.015866
lhand 3.652528 -18.461960
lfingers 7.837522
lthumb 31.643480 12.122001
rfemur 10.797787 1.816771 19.837841
rtibia 37.216961
rfoot 9.167027 -1.598267
rtoes -13.495790
lfemur -40.058811 9.723318 -22.007151
ltibia 41.618610
lfoot -7.662380 7.235239
ltoes -2.489135
55
root 8.800780 16.025900 -28.599701 6.489510 -11.342600 -1.700020
lowerback -6.720472 0.840716 -0.849618
upperback -2.852366 1.119261 3.155603
thorax 0.755863 0.577064 3.802271
lowerneck -24.066792 -4.656487 -13.721070
upperneck 19.345039 -5.576351 15.656301
head 10.896115 -1.774949 7.053916
rclavicle 0.000000 0.000000
rhumerus -48.667740 18.101601 -103.225868
rradius 45.315273
rwrist -23.767811
rhand -32.190731 -29.565472
rfingers 7.837522
rthumb -2.867634 -62.525650
lclavicle 0.000000 0.000000
lhumerus -47.860783 -2.416425 96.731255
lradius 21.725441
lwrist -7.453897
lhand 3.321197 -19.148140
lfingers 7.837522
lthumb 31.326900 11.489170
rfemur 9.297926 1.542486 19.445580
rtibia 40.246029
rfoot 10.271997 -2.677312
rtoes -12.266760
lfemur -39.166271 9.814168 -22.386869
ltibia 41.306763
lfoot -8.406113 7.255094
ltoes -3.423387
56
root 8.831670 16.053200 -28.466801 6.273960 -11.524900 -1.337560
lowerback -6.357912 0.903376 -1.204533
upperback -2.879855 1.226335 3.051092
thorax 0.513917 0.635975 3.893670
lowerneck -24.047100 -4.710981 -13.397120
upperneck 19.321060 -5.661722 15.240940
head 10.874018 -1.837638 6.826072
rclavicle -0.000000 0.000000
rhumerus -48.388779 17.270660 -102.748688
rradius 44.303928
rwrist -23.046322
rhand -31.787140 -29.100172
rfingers 7.837522
rthumb -2.477904 -62.064861
lclavicle -0.000000 0.000000
lhumerus -47.417591 -2.416260 96.523796
lradius 21.404680
lwrist -7.969676
lhand 2.797652 -19.975780
lfingers 7.837522
lthumb 30.826509 10.744370
rfemur 7.901168 1.281830 18.928801
rtibia 43.171589
rfoot 11.332860 -3.509385
rtoes -10.157555
lfemur -38.145802 9.876263 -22.928400
ltibia 40.885132
lfoot -8.853593 7.233864
ltoes -3.221460
57
root 8.866310 16.085100 -28.324699 6.149030 -11.877700 -0.948465
lowerback -6.447001 0.950794 -1.492634
upperback -2.688323 1.303126 2.954490
thorax 0.751249 0.670831 3.965093
lowerneck -24.746370 -4.726568 -13.193620
upperneck 19.749180 -5.617469 14.832951
head 11.125950 -1.823151 6.665593
rclavicle -0.000000 -0.000000
rhumerus -47.933819 16.718349 -102.222122
rradius 43.541084
rwrist -22.492250
rhand -31.026711 -27.851450
rfingers 7.837522
rthumb -1.743467 -60.822742
lclavicle -0.000000 -0.000000
lhumerus -46.593803 -2.433145 96.429741
lradius 21.218340
lwrist -7.827974
lhand 2.526216 -20.126591
lfingers 7.837522
lthumb 30.567020 10.635736
rfemur 6.375457 1.015783 18.246799
rtibia 45.948433
rfoot 12.377200 -4.095003
rtoes -9.019868
lfemur -37.100029 10.017106 -23.545170
ltibia 40.368351
lfoot -9.318166 7.325549
ltoes -3.272797
58
root 8.902580 16.117599 -28.177900 5.895110 -12.248600 -0.507219
lowerback -6.433207 0.964769 -1.783166
upperback -2.515073 1.336907 2.854247
thorax 0.915359 0.684597 4.029377
lowerneck -25.319250 -4.715865 -13.256980
upperneck 20.207331 -5.531977 14.717780
head 11.378620 -1.781912 6.669322
rclavicle 0.000000 0.000000
rhumerus -47.836250 16.482180 -101.841629
rradius 43.111969
rwrist -21.999010
rhand -30.617620 -26.752220
rfingers 7.837522
rthumb -1.348402 -59.726040
lclavicle 0.000000 0.000000
lhumerus -46.053261 -2.756798 96.576698
lradius 21.461660
lwrist -7.053607
lhand 2.768216 -19.421270
lfingers 7.837522
lthumb 30.798351 11.303490
rfemur 5.021610 0.807484 17.499460
rtibia 48.583702
rfoot 13.339371 -5.569542
rtoes -7.104625
lfemur -35.870121 10.073811 -24.198351
ltibia 39.811203
lfoot -9.862765 7.537926
ltoes -3.229072
